# xmcd
#
# Track frame offsets:
#	150
#	15972
#	32265
#	46152
#	58122
#	73612
#	93047
#	108517
#	124012
#	139432
#	155875
#	169737
#	188007
#	202155
#	219277
#	235652
#
# Disc length: 3317 seconds
#
# Revision: 1
# Processed by: cddbd v1.5PL3 Copyright (c) Steve Scherf et al.
# Submitted via: CDex 1.50Beta5
#
DISCID=d50cf310
DTITLE=Various Artist - オールスター年代別流行歌
DYEAR=1900
DGENRE=
TTITLE0=ちあきなおみ/別れの一本杉
TTITLE1=こまどり姉妹/浅草姉妹
TTITLE2=美空ひばり/ここに幸あり
TTITLE3=小林 旭/北帰行
TTITLE4=初代コロンビヤ・ローズ/東京のバスガール
TTITLE5=島倉千代子/からたち日記
TTITLE6=ちあきなおみ/アカシヤの雨がやむとき
TTITLE7=村田英雄/王将
TTITLE8=北島三郎/なみだ船
TTITLE9=畠山みどり/出世街道
TTITLE10=舟木一夫/高校三年生
TTITLE11=都はるみ/アンコ椿は恋の花
TTITLE12=小阪一也/青春サイクリング
TTITLE13=村田英雄/人生劇場
TTITLE14=島倉千代子/東京だョおっ母さん
TTITLE15=守屋 浩/僕は泣いちっち
EXTD=
EXTT0=
EXTT1=
EXTT2=
EXTT3=
EXTT4=
EXTT5=
EXTT6=
EXTT7=
EXTT8=
EXTT9=
EXTT10=
EXTT11=
EXTT12=
EXTT13=
EXTT14=
EXTT15=
PLAYORDER=
